#!OML:ASF H:\IndianDance\Patient Classification 1\Patient 1\Session 1\dancer.ASF
:FULLY-SPECIFIED
:DEGREES
3478
root 8.2823 14.7284 3.1092 -889.804 12.3969 -174.001
lowerback 4.64468 0.21951 -1.61987
upperback -8.17046 2.94586 11.0253
thorax -12.3862 3.03482 12.8584
lowerneck -15.0516 -10.5822 -3.93913
upperneck 12.9772 -13.0598 -2.16908
head 6.50423 -6.65861 -1.37348
rclavicle 2.38542e-014 -1.39944e-013
rhumerus -29.0743 61.1115 -56.3305
rradius 98.4341
rwrist -75.3859
rhand 31.529 -5.08309
rfingers 7.12502
rthumb 55.0761 -23.1666
lclavicle 2.38542e-014 -1.39944e-013
lhumerus 54.7574 26.9683 -1.13424
lradius 48.558
lwrist -4.34401
lhand 23.4681 378.667
lfingers 7.12502
lthumb 47.7511 40.9953
rfemur -33.1466 -15.5415 25.3708
rtibia 51.5364
rfoot -23.4564 -8.1186
rtoes 3.87041
lfemur -39.6209 19.4075 -18.4277
ltibia 66.3452
lfoot -17.5952 2.27469
ltoes 1.48285
3479
root 8.31659 14.7177 3.11055 -890.093 11.6446 -173.648
lowerback 5.04976 0.240999 -1.29679
upperback -8.11349 3.04286 11.0484
thorax -12.5784 3.06359 12.6713
lowerneck -14.9602 -10.4088 -3.68145
upperneck 12.6988 -12.7986 -2.7026
head 6.34481 -6.56743 -1.52986
rclavicle 2.62396e-014 -1.145e-013
rhumerus -29.0827 61.2154 -56.1751
rradius 98.4517
rwrist -75.3097
rhand 31.6683 -5.28907
rfingers 7.12502
rthumb 55.2003 -23.2819
lclavicle 2.62396e-014 -1.145e-013
lhumerus 55.3342 27.2064 -0.698415
lradius 49.2166
lwrist -4.22984
lhand 19.838 377.593
lfingers 7.12502
lthumb 44.3842 41.3313
rfemur -32.746 -15.6915 25.8206
rtibia 51.6137
rfoot -23.3681 -8.62888
rtoes 3.99361
lfemur -40.646 20.096 -17.6979
ltibia 68.229
lfoot -16.4127 0.683362
ltoes 2.11947
3480
root 8.34957 14.7121 3.10966 -890.411 10.9417 -173.284
lowerback 5.44889 0.27154 -0.988708
upperback -8.03683 3.15564 11.0914
thorax -12.7505 3.10189 12.5139
lowerneck -14.8753 -10.2183 -3.42595
upperneck 12.4219 -12.515 -3.23673
head 6.18984 -6.46339 -1.68509
rclavicle -2.14687e-014 2.29e-013
rhumerus -29.0803 61.3157 -55.9791
rradius 98.4681
rwrist -75.1759
rhand 31.7501 -5.48858
rfingers 7.12502
rthumb 55.2731 -23.4278
lclavicle -2.14687e-014 2.29e-013
lhumerus 55.8627 27.4087 -0.286517
lradius 49.7943
lwrist -4.20663
lhand 16.1651 376.424
lfingers 7.12502
lthumb 40.9472 41.3575
rfemur -32.2348 -15.9652 26.2754
rtibia 51.5721
rfoot -23.3243 -9.07355
rtoes 3.85497
lfemur -41.6244 20.8555 -16.9467
ltibia 69.9996
lfoot -15.1854 -0.772983
ltoes 2.85192
3481
root 8.38221 14.7114 3.10638 -890.714 10.2725 -172.949
lowerback 5.79327 0.309499 -0.746544
upperback -7.95886 3.2731 11.1433
thorax -12.8931 3.14908 12.4062
lowerneck -14.8044 -10.0253 -3.2185
upperneck 12.1644 -12.224 -3.73118
head 6.05195 -6.35256 -1.82319
rclavicle 1.82882e-014 5.725e-014
rhumerus -29.0961 61.3975 -55.7645
rradius 98.491
rwrist -74.9889
rhand 31.7853 -5.67392
rfingers 7.12502
rthumb 55.3045 -23.59
lclavicle 1.82882e-014 5.725e-014
lhumerus 56.3505 27.5781 0.10413
lradius 50.2936
lwrist -4.32697
lhand 12.4056 375.101
lfingers 7.12502
lthumb 37.4043 41.0597
rfemur -31.6773 -16.3398 26.7062
rtibia 51.4231
rfoot -23.2944 -9.42435
rtoes 3.60709
lfemur -42.5949 21.6512 -16.2351
ltibia 71.6079
lfoot -13.9699 -1.96318
ltoes 3.42491
3482
root 8.4151 14.7147 3.10055 -890.976 9.62691 -172.689
lowerback 6.05377 0.35089 -0.615794
upperback -7.89615 3.37722 11.1859
thorax -13.0039 3.19891 12.3577
lowerneck -14.7357 -9.82939 -3.03782
upperneck 11.9155 -11.9299 -4.18973
head 5.92369 -6.23664 -1.94762
rclavicle 2.94201e-014 1.87653e-013
rhumerus -29.1452 61.4607 -55.5696
rradius 98.5155
rwrist -74.757
rhand 31.7722 -5.80891
rfingers 7.12502
rthumb 55.2928 -23.7337
lclavicle 2.94201e-014 1.87653e-013
lhumerus 56.7961 27.7095 0.465955
lradius 50.7305
lwrist -4.63042
lhand 8.58646 373.631
lfingers 7.12502
lthumb 33.7844 40.4622
rfemur -31.1436 -16.7963 27.0747
rtibia 51.2056
rfoot -23.2729 -9.65272
rtoes 3.43113
lfemur -43.5854 22.4454 -15.6299
ltibia 73.0184
lfoot -12.8551 -2.85554
ltoes 3.72307
